<svg width="127" height="30" viewBox="0 0 127 30" fill="none" xmlns="http://www.w3.org/2000/svg">
<path d="M8.04545 28.6937H3.25996V14.5497H0V9.94467H3.25984V6.66788C3.25984 2.78487 4.70167 0 9.4742 0C10.4836 0 12.0683 0.24122 12.0683 0.24122V4.51722H10.4038C8.70788 4.51722 8.0457 5.12886 8.0457 6.8198V9.94467H12.0048L11.6523 14.5497H8.04558L8.04545 28.6937ZM19.0259 9.57667C18.9561 9.57667 18.8844 9.57968 18.8134 9.58179C14.376 9.58179 12.3458 13.5392 12.3458 19.1568C12.3458 26.2335 14.9793 29.0658 18.8481 29.0658C21.0616 29.0658 22.5158 27.9612 23.3998 25.8998V28.6957H27.9514V9.94663H23.3998V12.83C22.678 10.9749 21.1831 9.59865 19.0259 9.57667ZM20.1832 14.007C22.0469 14.007 23.1656 15.5483 23.1656 18.1699L23.1699 20.8476C23.1699 22.6146 22.246 24.6818 20.1832 24.6818C17.012 24.6818 17.0967 20.622 17.0967 19.2699C17.0967 14.7215 18.7863 14.007 20.1832 14.007ZM29.7896 19.3221C29.7896 17.0438 29.6977 9.58886 37.8897 9.58886C41.1781 9.58886 42.5512 10.8285 42.5512 10.8285L41.4476 14.887C41.4476 14.887 40.0762 13.9917 38.2894 13.9917C36.0007 13.9917 34.5403 15.5647 34.5403 18.3324L34.5429 20.317C34.5429 22.9764 35.9519 24.7517 38.2941 24.7517C39.9219 24.7517 41.4223 23.8479 41.4223 23.8479L42.5232 27.8216C42.5232 27.8216 41.2676 29.0691 37.9127 29.0691C30.1126 29.0691 29.7898 22.3806 29.7898 19.3221H29.7896ZM69.2394 9.58179C73.6769 9.58179 75.7391 13.5392 75.7391 19.1568C75.7391 26.2335 73.1055 29.0658 69.2367 29.0658C67.0232 29.0658 65.387 27.9613 64.5031 25.8998V28.6957L60.0086 28.6936V0.570074L64.7805 0.0766422V12.576C65.4693 10.3892 67.7327 9.58179 69.2395 9.58179H69.2394ZM67.9016 14.007C66.0378 14.007 64.7805 15.5483 64.7805 18.1699L64.7761 20.8476C64.7733 22.6146 65.6468 24.6818 67.9016 24.6818C71.0728 24.6818 70.9881 20.622 70.9881 19.2699C70.9881 14.7215 69.2986 14.007 67.9016 14.007ZM50.8309 9.59729C45.7979 9.59729 43.1408 12.8507 43.1408 18.6325V19.7067C43.1408 27.2109 46.8721 29.1429 51.3207 29.1429C55.6447 29.1429 57.6019 27.709 57.6019 27.709L56.7089 23.8904C56.7089 23.8904 54.4067 25.0518 51.8928 25.0518C49.2868 25.0518 48.166 24.2643 47.8787 21.2949H57.9834V18.2315C57.9834 11.9598 55.0013 9.59714 50.8307 9.59714L50.8309 9.59729ZM50.9521 13.421C52.6943 13.421 53.8232 14.6876 53.7613 17.6252H47.8875C47.9894 14.5334 49.2068 13.4211 50.9521 13.4211V13.421ZM85.2541 9.57155C80.0856 9.57155 77.3646 13.0248 77.3646 19.2133C77.3646 27.7041 82.055 29.0709 85.2627 29.0709C89.9587 29.0709 93.0829 26.0734 93.0829 19.2904C93.0829 12.2304 89.5701 9.57155 85.2541 9.57155ZM85.1891 14.0224C87.4617 14.0224 88.3623 16.039 88.3623 18.3345V20.3081C88.3623 23.0889 87.1022 24.6973 85.1804 24.6973C83.3831 24.6973 82.12 23.1928 82.12 20.3081V18.3345C82.12 15.258 83.623 14.0224 85.1891 14.0224ZM102.589 9.57155C97.4208 9.57155 94.6998 13.0248 94.6998 19.2133C94.6998 27.7041 99.3902 29.0709 102.598 29.0709C107.294 29.0709 110.418 26.0734 110.418 19.2904C110.418 12.2304 106.905 9.57155 102.589 9.57155ZM102.524 14.0224C104.797 14.0224 105.697 16.039 105.697 18.3345V20.3081C105.697 23.0889 104.437 24.6973 102.516 24.6973C100.718 24.6973 99.4552 23.1928 99.4552 20.3081V18.3345C99.4552 15.258 100.958 14.0224 102.524 14.0224ZM112.221 28.6937V0.570074L117.007 0.0767928V18.927L121.755 9.94482H126.809L121.856 19.2477L127 28.6937H121.932L117.007 19.5216V28.6937H112.221Z" fill="#1877F2"/>
</svg>
