<svg width="41" height="47" viewBox="0 0 41 47" fill="none" xmlns="http://www.w3.org/2000/svg">
<path fill-rule="evenodd" clip-rule="evenodd" d="M1.55435 23.5V12.647L10.9528 7.22074L20.3517 1.7945L29.7507 7.22074L39.1496 12.647V23.5V34.353L29.7507 39.7793L20.3517 45.2055L10.9528 39.7793L1.55435 34.353V23.5V23.5ZM20.3517 3.89406L28.8413 8.79568L37.3308 13.6973V23.5V33.3027L28.8413 38.2043L20.3517 43.1054L11.8622 38.2043L3.3726 33.3027V23.5V13.6973L11.8622 8.79568L20.3517 3.89406ZM20.2572 9.47389C22.0063 9.47389 23.424 10.8915 23.424 12.6407C23.424 14.3898 22.0063 15.8074 20.2572 15.8074C18.5081 15.8074 17.0905 14.3898 17.0905 12.6407C17.0905 10.8915 18.5081 9.47389 20.2572 9.47389ZM20.2572 16.3115C20.5839 16.3115 20.851 16.5785 20.851 16.9052V33.4515C20.851 33.7782 20.5839 34.0453 20.2572 34.0453C19.9305 34.0453 19.6635 33.7782 19.6635 33.4515V16.9052C19.6635 16.5785 19.9305 16.3115 20.2572 16.3115V16.3115ZM20.2572 34.5705C21.0732 34.5705 21.7351 35.2318 21.7351 36.0483C21.7351 36.8643 21.0732 37.5261 20.2572 37.5261C19.4413 37.5261 18.7794 36.8643 18.7794 36.0483C18.7794 35.2318 19.4413 34.5705 20.2572 34.5705ZM16.701 13.8424C16.8118 14.0061 16.7685 14.2304 16.6049 14.3407L8.31644 19.9464C8.15283 20.0567 7.92851 20.0134 7.81768 19.8498C7.70737 19.6862 7.75065 19.4619 7.91426 19.3515L16.2022 13.7459C16.3658 13.6355 16.5907 13.6788 16.701 13.8424ZM6.49714 19.6561C7.07401 19.6561 7.54164 20.1237 7.54164 20.7006C7.54164 21.2775 7.07401 21.7451 6.49714 21.7451C5.92026 21.7451 5.45263 21.2775 5.45263 20.7006C5.45263 20.1237 5.92026 19.6561 6.49714 19.6561ZM24.0025 13.8424C23.8916 14.0061 23.9354 14.2304 24.0985 14.3407L32.387 19.9464C32.5506 20.0567 32.7749 20.0134 32.8858 19.8498C32.9966 19.6862 32.9528 19.4619 32.7897 19.3515L24.5012 13.7459C24.3376 13.6355 24.1133 13.6788 24.0025 13.8424V13.8424ZM34.2063 19.6561C33.6294 19.6561 33.1618 20.1237 33.1618 20.7006C33.1618 21.2775 33.6294 21.7451 34.2063 21.7451C34.7832 21.7451 35.2508 21.2775 35.2508 20.7006C35.2508 20.1237 34.7832 19.6561 34.2063 19.6561ZM18.3224 15.6887C18.4184 15.7567 18.4411 15.8913 18.373 15.9874L14.9191 20.8568C14.8511 20.9529 14.7165 20.9756 14.6204 20.9075C14.5243 20.8394 14.5017 20.7048 14.5697 20.6087L18.0236 15.7393C18.0917 15.6433 18.2263 15.6206 18.3224 15.6887V15.6887ZM14.1491 21.0041C14.4336 21.0041 14.6647 21.2352 14.6647 21.5197C14.6647 21.8047 14.4336 22.0354 14.1491 22.0354C13.8641 22.0354 13.6334 21.8047 13.6334 21.5197C13.6334 21.2352 13.8641 21.0041 14.1491 21.0041ZM22.4581 15.4775H22.4576C22.3616 15.5456 22.3389 15.6802 22.4069 15.7763L25.8613 20.6457C25.9294 20.7418 26.0635 20.7644 26.1596 20.6964H26.1601C26.2561 20.6283 26.2788 20.4937 26.2107 20.3976L22.7563 15.5282C22.6883 15.4322 22.5542 15.4095 22.4581 15.4775ZM26.6314 20.7929C26.3464 20.7929 26.1157 21.0241 26.1157 21.3086C26.1157 21.5936 26.3464 21.8243 26.6314 21.8243C26.9159 21.8243 27.1465 21.5936 27.1465 21.3086C27.1465 21.0241 26.9159 20.7929 26.6314 20.7929ZM40.7034 23.5V11.7497L30.5276 5.87487L20.3517 0L10.1759 5.87487L0 11.7497V23.5V35.2503L10.1759 41.1251L20.3517 47L30.5276 41.1251L40.7034 35.2503V23.5Z" fill="white"/>
</svg>
