<svg width="36" height="41" viewBox="0 0 36 41" fill="none" xmlns="http://www.w3.org/2000/svg">
<path fill-rule="evenodd" clip-rule="evenodd" d="M1.35334 20.461V11.0115L9.53637 6.28696L17.7199 1.56244L25.9033 6.28696L34.0868 11.0115V20.461V29.9105L25.9033 34.6351L17.7199 39.3596L9.53637 34.6351L1.35334 29.9105V20.461ZM17.7199 3.39048L25.1116 7.65823L32.5033 11.926V20.461V28.996L25.1116 33.2638L17.7199 37.5311L10.3282 33.2638L2.93646 28.996V20.461V11.926L10.3282 7.65823L17.7199 3.39048ZM17.6376 8.24874C19.1605 8.24874 20.3948 9.48306 20.3948 11.006C20.3948 12.5289 19.1605 13.7632 17.6376 13.7632C16.1147 13.7632 14.8804 12.5289 14.8804 11.006C14.8804 9.48306 16.1147 8.24874 17.6376 8.24874ZM17.6376 14.2021C17.9221 14.2021 18.1546 14.4346 18.1546 14.7191V29.1256C18.1546 29.4101 17.9221 29.6426 17.6376 29.6426C17.3531 29.6426 17.1206 29.4101 17.1206 29.1256V14.7191C17.1206 14.4346 17.3531 14.2021 17.6376 14.2021ZM17.6376 30.0999C18.348 30.0999 18.9243 30.6757 18.9243 31.3866C18.9243 32.097 18.348 32.6733 17.6376 32.6733C16.9271 32.6733 16.3509 32.097 16.3509 31.3866C16.3509 30.6757 16.9271 30.0999 17.6376 30.0999ZM14.5412 12.0523C14.6377 12.1948 14.6 12.3901 14.4576 12.4862L7.24097 17.3669C7.09851 17.463 6.90321 17.4253 6.8067 17.2828C6.71066 17.1404 6.74834 16.9451 6.8908 16.849L14.107 11.9683C14.2494 11.8722 14.4452 11.9099 14.5412 12.0523ZM5.65693 17.1142C6.15921 17.1142 6.56636 17.5213 6.56636 18.0236C6.56636 18.5259 6.15921 18.933 5.65693 18.933C5.15466 18.933 4.74751 18.5259 4.74751 18.0236C4.74751 17.5213 5.15466 17.1142 5.65693 17.1142ZM20.8985 12.0523C20.802 12.1948 20.8401 12.3901 20.9821 12.4862L28.1987 17.3669C28.3412 17.463 28.5365 17.4253 28.633 17.2828C28.7295 17.1404 28.6914 16.9451 28.5494 16.849L21.3328 11.9683C21.1903 11.8722 20.995 11.9099 20.8985 12.0523ZM29.7828 17.1142C29.2805 17.1142 28.8733 17.5213 28.8733 18.0236C28.8733 18.5259 29.2805 18.933 29.7828 18.933C30.285 18.933 30.6922 18.5259 30.6922 18.0236C30.6922 17.5213 30.285 17.1142 29.7828 17.1142ZM15.9529 13.6598C16.0366 13.7191 16.0563 13.8363 15.997 13.9199L12.9898 18.1596C12.9305 18.2433 12.8133 18.263 12.7297 18.2037C12.6461 18.1445 12.6263 18.0273 12.6856 17.9436L15.6928 13.7039C15.7521 13.6203 15.8693 13.6005 15.9529 13.6598ZM12.3193 18.2878C12.567 18.2878 12.7683 18.4891 12.7683 18.7368C12.7683 18.985 12.567 19.1858 12.3193 19.1858C12.0712 19.1858 11.8704 18.985 11.8704 18.7368C11.8704 18.4891 12.0712 18.2878 12.3193 18.2878ZM19.5539 13.476H19.5534C19.4698 13.5353 19.45 13.6525 19.5093 13.7361L22.517 17.9758C22.5763 18.0595 22.693 18.0792 22.7766 18.0199H22.7771C22.8607 17.9607 22.8805 17.8435 22.8212 17.7598L19.8135 13.5201C19.7542 13.4365 19.6375 13.4167 19.5539 13.476ZM23.1875 18.104C22.9393 18.104 22.7385 18.3053 22.7385 18.553C22.7385 18.8011 22.9393 19.002 23.1875 19.002C23.4352 19.002 23.636 18.8011 23.636 18.553C23.636 18.3053 23.4352 18.104 23.1875 18.104ZM35.4397 20.461V10.2303L26.5798 5.11514L17.7199 0L8.85993 5.11514L0 10.2303V20.461V30.6917L8.85993 35.8069L17.7199 40.922L26.5798 35.8069L35.4397 30.6917V20.461Z" fill="#FF4A00"/>
</svg>
