<svg width="84" height="28" viewBox="0 0 84 28" fill="none" xmlns="http://www.w3.org/2000/svg">
<path d="M4.32531 0.0968211C2.60541 0.940365 0.7142 3.32098 0.117274 6.31529C-0.640063 10.1059 2.50856 11.7067 2.76582 11.1844C3.06853 10.5649 2.19982 10.357 2.02242 8.39155C1.79418 5.8499 2.79974 3.01024 4.06864 1.76422C4.30533 1.53645 4.29384 1.85788 4.29384 2.4504C4.29384 3.519 4.24299 13.0796 4.24299 15.0756C4.24299 17.7776 4.14855 18.6284 3.9742 19.4685C3.80285 20.3228 3.52561 20.8989 3.73447 21.1232C3.97116 21.3708 4.97672 20.7812 5.55971 19.8275C6.25711 18.6851 6.50288 17.3121 6.54829 15.822C6.59973 14.0276 6.59673 11.1744 6.59973 9.55024C6.59973 8.0566 6.61971 3.68998 6.57975 1.06106C6.56826 0.418252 5.04269 -0.255156 4.32531 0.0968211ZM83.6205 14.2817C83.3747 14.2817 83.2579 14.5832 83.1634 15.0891C82.8378 16.8538 82.4951 17.2519 82.052 17.2519C81.558 17.2519 81.1148 16.3784 80.998 14.63C80.9096 13.257 80.9235 10.7253 81.0379 8.2071C81.061 7.69127 80.9405 7.17964 79.7576 6.67376C79.2466 6.45945 78.5062 6.13802 78.1381 7.18251C77.0951 10.1265 76.6894 12.4702 76.592 13.4181C76.5897 13.4678 76.5381 13.4749 76.529 13.3613C76.4697 12.6007 76.3323 11.2177 76.3153 8.31071C76.3093 7.74874 76.2094 7.26266 75.6724 6.86747C75.3267 6.61341 74.2752 6.15787 73.895 6.69717C73.5693 7.13919 73.1897 8.32487 72.7926 9.73124C72.4723 10.8765 72.2496 11.6534 72.2496 11.6534C72.2496 11.6534 72.2518 8.56541 72.2581 7.39325C72.2581 6.95118 72.0007 6.8043 71.9239 6.77732C71.5721 6.65673 70.8778 6.45945 70.5866 6.45945C70.224 6.45945 70.138 6.69717 70.138 7.04202C70.138 7.08528 70.0781 11.1035 70.0781 13.9134V14.3086C69.8807 15.6014 69.2299 17.3562 68.524 17.3562C67.8181 17.3562 67.484 16.6225 67.484 13.2741C67.484 11.3214 67.5355 10.4713 67.5584 9.05788C67.5724 8.24398 67.6008 7.61815 67.5984 7.47414C67.5923 7.04202 66.9494 6.82064 66.6522 6.74044C66.3525 6.65673 66.0922 6.62975 65.887 6.6397C65.6012 6.66024 65.3984 6.88093 65.3984 7.18959V7.6579C65.0298 6.97528 64.4322 6.4992 64.0327 6.36222C62.9642 5.99045 61.8466 6.32178 61.0039 7.70116C60.3356 8.80031 59.9324 10.042 59.7756 11.8273C59.6581 13.1336 59.6957 14.4562 59.904 15.5745C59.6527 16.8368 59.1896 17.3562 58.6841 17.3562C57.9467 17.3562 57.4158 15.9491 57.4758 13.5146C57.5188 11.9146 57.79 10.7928 58.0896 9.16501C58.2186 8.47175 58.1126 8.11062 57.8529 7.75864C57.6156 7.44359 57.1071 7.27969 56.3788 7.47696C55.8612 7.62102 55.1159 7.77498 54.4385 7.89275C54.4385 7.89275 54.4785 7.70116 54.513 7.36345C54.6873 5.59164 53.0443 5.7357 52.5213 6.30193C52.2071 6.6397 51.9928 7.03845 51.9129 7.75513C51.7845 8.89397 52.5758 9.42965 52.5758 9.42965C52.3161 10.8226 51.6816 12.644 51.0217 13.9602C50.67 14.667 50.4012 15.1864 50.0531 15.7419C50.05 15.5376 50.05 15.3297 50.05 15.126C50.0439 12.1956 50.0754 9.88876 50.0899 9.05788C50.1044 8.24398 50.1329 7.63448 50.1329 7.49043C50.1269 7.17538 49.97 7.05192 49.6383 6.90435C49.3471 6.77093 49.0014 6.67376 48.6443 6.6397C48.1957 6.59994 47.9214 6.88093 47.9299 7.21231V7.6579C47.5588 6.97528 46.9613 6.4992 46.5672 6.36222C45.4956 5.99045 44.3787 6.32178 43.536 7.70116C42.8701 8.80031 42.43 10.3372 42.3041 11.8103C42.1902 13.1903 42.2102 14.3554 42.37 15.3403C42.1987 16.3245 41.7102 17.3562 41.1562 17.3562C40.4503 17.3562 40.0472 16.6225 40.0472 13.2741C40.0472 11.3214 40.0986 10.4713 40.1247 9.05788C40.1386 8.24398 40.1646 7.61815 40.1616 7.47414C40.1585 7.04202 39.5163 6.82064 39.216 6.74044C38.9048 6.65385 38.633 6.62692 38.4271 6.6397C38.1529 6.66663 37.9616 6.95118 37.9616 7.16899V7.6579C37.5905 6.97528 36.993 6.4992 36.5959 6.36222C35.5274 5.99045 34.4189 6.32891 33.5702 7.70116C33.0162 8.59596 32.5676 9.59005 32.3364 11.7939C32.2734 12.4304 32.242 13.0257 32.2449 13.582C32.0246 15.1622 31.0506 16.9843 30.2563 16.9843C29.7877 16.9843 29.3421 15.9257 29.3421 13.6657C29.3421 10.6586 29.502 6.37218 29.5304 5.95708C29.5304 5.95708 30.5359 5.93649 30.7333 5.93367C31.2333 5.9301 31.6904 5.94362 32.3564 5.90317C32.6935 5.88332 33.0162 4.47339 32.6675 4.29602C32.5131 4.21864 31.4047 4.14839 30.9646 4.1385C30.5935 4.12854 29.5673 4.03845 29.5673 4.03845C29.5673 4.03845 29.6594 1.19522 29.6794 0.897205C29.6963 0.642455 29.4221 0.51548 29.2622 0.438102C28.876 0.244392 28.5303 0.153604 28.1247 0.0563761C27.5563 -0.0805513 27.302 0.0535556 27.2536 0.611962C27.1791 1.45987 27.1391 3.94479 27.1391 3.94479C26.722 3.94479 25.3079 3.84687 24.8931 3.84687C24.5081 3.84687 24.0904 5.78961 24.625 5.81302C25.2394 5.84 26.3049 5.86699 27.0132 5.88966C27.0132 5.88966 26.9817 10.2471 26.9817 11.5896V12.0047C26.5907 14.3852 25.2219 15.6717 25.2219 15.6717C25.5161 14.0943 24.9162 12.9122 23.8307 11.9146C23.4306 11.5427 22.6423 10.8424 21.7591 10.0825C21.7591 10.0825 22.2706 9.49 22.7247 8.30433C23.0449 7.4635 23.0595 6.49633 22.2706 6.2849C20.9678 5.93367 19.8963 7.05548 19.5736 8.25393C19.3279 9.17847 19.4568 9.86816 19.9448 10.5813L20.0561 10.7424C19.765 11.4051 19.3593 12.2991 19.0191 12.9924C18.068 14.9181 17.3506 16.4387 16.8107 16.4387C16.3766 16.4387 16.382 14.8947 16.382 13.4479C16.382 12.2019 16.462 10.3237 16.5249 8.38165C16.5449 7.74161 16.2707 7.37335 15.8112 7.04202C15.5309 6.84118 14.9364 6.44599 14.5907 6.44599C14.0768 6.44599 12.5851 6.52613 11.1769 11.2979C10.9995 11.9011 10.6508 12.9959 10.6508 12.9959L10.6824 7.25627C10.6824 7.12216 10.6224 6.99519 10.4826 6.90435C10.2453 6.7539 9.60837 6.44599 9.04841 6.44599C8.77657 6.44599 8.64218 6.59356 8.64218 6.8845L8.59677 15.859C8.59677 16.5423 8.61071 17.3391 8.66824 17.6876C8.72513 18.0359 8.81957 18.3205 8.93399 18.4908C9.04841 18.6554 9.18221 18.7824 9.39951 18.8392C9.60233 18.8895 10.7193 19.0534 10.7768 18.5546C10.8482 17.955 10.8506 17.3093 11.4367 14.8883C12.3508 11.1241 13.5398 9.28916 14.0997 8.63566C14.1996 8.52215 14.311 8.51507 14.305 8.70308C14.2795 9.5297 14.1966 11.5896 14.1397 13.3408C13.9884 18.0324 14.7136 18.8995 15.7567 18.8995C16.5509 18.8995 17.6709 17.9721 18.8738 15.6284C19.6251 14.1646 20.3509 12.7348 20.8764 11.7003C21.2366 12.0948 21.6477 12.5205 22.0563 12.976C23.008 14.0305 23.3192 15.0352 23.1109 15.9867C22.9535 16.7161 22.3566 17.4662 21.2966 16.7367C20.9878 16.5253 20.8565 16.3614 20.5453 16.1201C20.3794 15.9896 20.1221 15.9527 19.9708 16.0868C19.5706 16.4387 19.3448 16.8836 19.2134 17.4364C19.0905 17.9756 19.5506 18.2566 20.0277 18.5042C20.4363 18.7221 21.3165 18.9129 21.879 18.9363C24.0704 19.0236 25.8248 17.6975 27.0447 14.2817C27.265 17.232 28.1931 18.903 29.8077 18.903C30.8901 18.903 31.9732 17.2653 32.4478 15.6547C32.5816 16.311 32.7844 16.88 33.0447 17.3661C34.2906 19.6764 36.7072 19.1811 37.9186 17.2185C38.2958 16.609 38.3533 16.3912 38.3533 16.3912C38.5301 18.2438 39.8044 18.8959 40.5333 18.8959C41.353 18.8959 42.1933 18.4411 42.7841 16.88C42.8556 17.0511 42.93 17.2121 43.016 17.3661C44.2588 19.6764 46.6755 19.1811 47.89 17.2185C47.9444 17.1213 47.9959 17.0411 48.0382 16.9638L48.0758 18.1828C48.0758 18.1828 47.3814 18.9264 46.9559 19.3848C45.0846 21.3978 43.6614 22.9248 43.556 24.6994C43.4246 26.9665 44.9901 27.8073 46.1785 27.9173C47.4359 28.0351 48.5159 27.2212 49.1782 26.0759C49.7612 25.0712 50.1444 22.9113 50.116 20.7748C50.1045 19.9177 50.0869 18.8328 50.0699 17.6641C50.7298 16.7736 51.4726 15.6411 52.1531 14.3157C52.8983 12.8753 53.6926 10.9361 54.0982 9.42614C54.0982 9.42614 54.7926 9.43322 55.5299 9.37931C55.7672 9.36228 55.8356 9.41976 55.7896 9.62054C55.7382 9.86465 54.8586 13.8467 55.6613 16.499C56.2128 18.3134 57.4496 18.8995 58.187 18.8995C59.0466 18.8995 59.8699 18.136 60.3094 17.0042C60.3639 17.1284 60.4184 17.2519 60.4814 17.3661C61.7242 19.6764 64.1324 19.1776 65.3553 17.2185C65.6326 16.7736 65.7869 16.3912 65.7869 16.3912C66.0497 18.3105 67.3241 18.903 68.0523 18.903C68.8151 18.903 69.5349 18.5383 70.1209 16.917C70.144 17.6308 70.1809 18.2133 70.2438 18.3971C70.2807 18.5114 70.4981 18.6518 70.6524 18.7221C71.3493 19.0236 72.0581 18.8796 72.3179 18.8158C72.5007 18.7724 72.6436 18.605 72.6611 18.1629C72.712 17.0042 72.6805 15.0586 72.9807 13.609C73.4863 11.1844 73.9548 10.2436 74.1776 9.77807C74.3011 9.51624 74.4434 9.47297 74.4464 9.74757C74.4549 10.3067 74.4809 11.9479 74.6777 14.1582C74.8181 15.7788 75.0094 16.7395 75.1577 17.0447C75.5749 17.9118 76.0949 17.9522 76.515 17.9522C76.7838 17.9522 77.3438 17.8649 77.2948 17.3122C77.2693 17.0447 77.3123 15.3801 77.8063 12.9896C78.132 11.4257 78.672 10.0158 78.8663 9.4999C78.9408 9.30906 78.9722 9.45664 78.9722 9.48644C78.9293 10.5614 78.8379 14.0808 79.209 16.003C79.7181 18.6121 81.1831 18.903 81.6947 18.903C82.7832 18.903 83.6779 17.9316 83.9776 15.3737C84.052 14.7571 83.9431 14.2817 83.6204 14.2817H83.6205ZM37.9386 12.7014C37.8787 14.0538 37.6528 15.1863 37.2932 16.0065C36.6358 17.4966 35.3421 17.9656 34.773 15.8192C34.359 14.2688 34.4988 12.1522 34.6731 11.0098C34.9244 9.3154 35.5618 8.11695 36.5559 8.2269C37.5729 8.34472 38.07 9.88163 37.9386 12.7014ZM47.907 12.7213C47.85 13.9971 47.5674 15.2828 47.2586 16.0065C46.6217 17.5066 45.2899 17.9756 44.7384 15.8192C44.3618 14.3419 44.4502 12.4367 44.6385 11.2376C44.8819 9.67727 45.4673 8.2269 46.5218 8.2269C47.5474 8.2269 48.0529 9.54668 47.907 12.7213ZM48.1673 21.4411C48.1528 23.7755 47.8416 25.8183 47.1726 26.4144C46.2185 27.2581 44.9358 26.6216 45.2015 24.9208C45.4358 23.4137 46.5473 21.8767 48.1703 19.9978C48.1703 19.9978 48.1758 20.4264 48.1671 21.4411H48.1673ZM65.3784 12.7348C65.3209 14.1382 65.0551 15.2331 64.727 16.0065C64.0895 17.5066 62.7698 17.972 62.2068 15.8192C61.9011 14.6435 61.8865 12.6808 62.1069 11.0439C62.3297 9.37569 62.9557 8.11695 63.9896 8.2269C65.0121 8.34115 65.4898 9.88163 65.3784 12.7348Z" fill="#231E1F"/>
</svg>
