<svg width="130" height="32" viewBox="0 0 130 32" fill="none" xmlns="http://www.w3.org/2000/svg">
<path d="M127.772 29.6802C127.851 29.681 127.93 29.6654 128.004 29.6343C128.077 29.6033 128.143 29.5574 128.198 29.4996C128.253 29.4418 128.296 29.3733 128.323 29.2984C128.351 29.2234 128.363 29.1436 128.358 29.0639C128.358 28.6268 128.095 28.4179 127.555 28.4179H126.683V30.7065H127.011V29.7089H127.414L127.423 29.721L128.049 30.7065H128.4L127.727 29.6865L127.772 29.6802ZM127.392 29.451H127.012V28.6773H127.494C127.743 28.6773 128.027 28.7181 128.027 29.0449C128.027 29.4209 127.74 29.451 127.391 29.451H127.392ZM0 4.65656H4.84115V22.3356H13.8035V26.8147H0V4.65656ZM15.9439 11.7908H20.5946V26.8064H15.9439V11.7908ZM18.2692 4.32581C18.8028 4.3259 19.3244 4.48462 19.768 4.78188C20.2116 5.07915 20.5573 5.50161 20.7615 5.99586C20.9656 6.49011 21.0189 7.03394 20.9148 7.55859C20.8106 8.08323 20.5536 8.56514 20.1763 8.94336C19.799 9.32159 19.3183 9.57915 18.7949 9.68347C18.2716 9.7878 17.7291 9.73421 17.2362 9.52947C16.7432 9.32474 16.3219 8.97806 16.0255 8.53327C15.7291 8.08847 15.5708 7.56555 15.5708 7.03061C15.5708 6.67537 15.6406 6.32361 15.7762 5.99541C15.9119 5.66722 16.1106 5.36902 16.3612 5.11785C16.6118 4.86668 16.9093 4.66746 17.2366 4.53156C17.564 4.39566 17.9149 4.32574 18.2692 4.32581ZM40.0493 4.65316H44.7001V17.8955L49.9709 11.784H55.673L49.5688 18.7357L55.5446 26.8127H49.6992L44.7621 19.3904H44.701V26.8117H40.0503L40.0493 4.65316ZM23.1734 11.7923H27.6395V13.8443H27.703C28.1491 13.0781 28.7944 12.4477 29.57 12.0205C30.3456 11.5933 31.2224 11.3854 32.1067 11.4188C36.8229 11.4188 37.691 14.5296 37.691 18.5711V26.8054H33.0402V19.505C33.0402 17.7624 33.0083 15.5224 30.618 15.5224C28.2005 15.5224 27.8275 17.42 27.8275 19.3783V26.8035H23.1768L23.1734 11.7923Z" fill="#0A66C2"/>
<path d="M65.467 17.552C65.4759 17.1738 65.4081 16.7976 65.2677 16.4464C65.1273 16.0951 64.9173 15.7761 64.6503 15.5086C64.3834 15.2412 64.065 15.0308 63.7146 14.8903C63.3641 14.7499 62.9889 14.6821 62.6116 14.6913C61.799 14.6406 60.9991 14.9121 60.3843 15.4473C59.7695 15.9824 59.3891 16.7383 59.3251 17.552H65.467ZM69.4065 24.206C68.6337 25.1455 67.6621 25.901 66.5622 26.4177C65.4622 26.9344 64.2613 27.1994 63.0466 27.1934C58.3959 27.1934 54.6724 24.0811 54.6724 19.2617C54.6724 14.4422 58.3954 11.3313 63.0466 11.3313C67.3936 11.3313 70.1197 14.4397 70.1197 19.2617V20.7236H59.3251C59.4595 21.5527 59.8882 22.3052 60.5323 22.8424C61.1764 23.3796 61.9924 23.6653 62.8301 23.6469C63.492 23.6428 64.1425 23.4728 64.7222 23.1523C65.3018 22.8318 65.7924 22.3711 66.1491 21.812L69.4065 24.206ZM79.8136 15.4203C77.4882 15.4203 76.093 16.977 76.093 19.2451C76.093 21.5133 77.4877 23.0714 79.8136 23.0714C82.1394 23.0714 83.5376 21.5172 83.5376 19.2451C83.5376 16.9731 82.1419 15.4203 79.8136 15.4203ZM87.8192 26.8034H83.5376V24.8121H83.4741C82.937 25.5364 82.2403 26.1266 81.4383 26.5367C80.6363 26.9468 79.7507 27.1657 78.8505 27.1764C74.3819 27.1764 71.4383 23.9432 71.4383 19.3709C71.4383 15.1717 74.0433 11.3158 78.3253 11.3158C80.2501 11.3158 82.0479 11.8437 83.1025 13.3071H83.1636V4.65164H87.8187L87.8192 26.8034ZM119.216 26.8122H114.565V19.5103C114.565 17.7691 114.534 15.5277 112.147 15.5277C109.724 15.5277 109.354 17.4248 109.354 19.3836V26.8117H104.703V11.7961H109.168V13.8482H109.23C109.677 13.0823 110.323 12.4522 111.098 12.025C111.874 11.5979 112.751 11.3897 113.635 11.4226C118.349 11.4226 119.218 14.531 119.218 18.5749L119.216 26.8122ZM99.4553 9.74361C98.9215 9.7437 98.3997 9.58511 97.9558 9.28787C97.5119 8.99064 97.1659 8.56812 96.9615 8.07374C96.7572 7.57936 96.7036 7.03533 96.8077 6.51044C96.9117 5.98555 97.1687 5.50338 97.546 5.12491C97.9234 4.74643 98.4043 4.48864 98.9278 4.38415C99.4513 4.27965 99.994 4.33313 100.487 4.53784C100.98 4.74254 101.402 5.08927 101.699 5.53418C101.995 5.97909 102.154 6.5022 102.154 7.03735C102.154 7.39268 102.084 7.74454 101.948 8.07284C101.813 8.40114 101.614 8.69946 101.364 8.95076C101.113 9.20206 100.815 9.40142 100.488 9.53746C100.161 9.67349 99.8097 9.74354 99.4553 9.74361ZM101.781 26.8122H97.1251V11.7961H101.781V26.8122ZM121.535 0.00214313H94.7881C94.181 -0.00472517 93.596 0.230317 93.1617 0.655621C92.7274 1.08093 92.4793 1.6617 92.4719 2.27031V29.1964C92.479 29.8053 92.727 30.3865 93.1613 30.8123C93.5956 31.238 94.1807 31.4735 94.7881 31.467H121.535C122.143 31.4747 122.73 31.2398 123.166 30.8141C123.602 30.3884 123.852 29.8065 123.86 29.1964V2.26837C123.851 1.65854 123.602 1.07712 123.166 0.651823C122.73 0.226529 122.143 -0.00784245 121.535 0.000200369V0.00214313ZM127.432 27.3984C126.866 27.4039 126.326 27.6337 125.928 28.0378C125.531 28.4418 125.31 28.9871 125.312 29.5544C125.315 30.1217 125.542 30.6648 125.943 31.065C126.344 31.4652 126.887 31.6898 127.453 31.6898C128.018 31.6898 128.561 31.4652 128.962 31.065C129.363 30.6648 129.59 30.1217 129.593 29.5544C129.596 28.9871 129.374 28.4418 128.977 28.0378C128.58 27.6337 128.039 27.4039 127.473 27.3984H127.432ZM127.432 31.4442C127.061 31.4504 126.696 31.3461 126.384 31.1445C126.072 30.943 125.827 30.6532 125.679 30.3118C125.531 29.9704 125.488 29.5927 125.554 29.2266C125.621 28.8604 125.794 28.5222 126.052 28.2548C126.31 27.9873 126.641 27.8025 127.004 27.7239C127.367 27.6452 127.745 27.6761 128.09 27.8128C128.435 27.9495 128.732 28.1857 128.944 28.4916C129.155 28.7976 129.271 29.1595 129.277 29.5315V29.5631C129.288 30.0512 129.104 30.5235 128.767 30.8761C128.431 31.2286 127.968 31.4326 127.481 31.4432H127.432" fill="#0A66C2"/>
</svg>
