<svg width="98" height="28" viewBox="0 0 98 28" fill="none" xmlns="http://www.w3.org/2000/svg">
<path d="M7.89722 10.9574V9.8732C7.58728 9.81355 7.27422 9.78087 6.96043 9.77541C3.92271 9.76762 1.23324 12.158 0.32103 15.6765C-0.59115 19.195 0.485585 23.0251 2.97919 25.1318C1.11129 22.7044 0.592613 19.1706 1.65488 16.1091C2.71715 13.0475 5.16197 11.0298 7.89722 10.9574Z" fill="#25F4EE"/>
<path d="M8.06538 23.239C9.76386 23.2362 11.16 21.6114 11.2343 19.551V1.16418H14.0007C13.9443 0.779983 13.9173 0.390249 13.9202 0L10.1365 0V18.369C10.0736 20.4399 8.67424 22.0803 6.96762 22.0837C6.45762 22.0784 5.95594 21.9261 5.50391 21.6393C5.79686 22.1322 6.1816 22.534 6.62675 22.812C7.0719 23.09 7.56485 23.2363 8.06541 23.239H8.06538ZM19.1676 7.40272V6.38071C18.1495 6.38114 17.154 6.01632 16.3061 5.33206C17.0494 6.38135 18.0539 7.10821 19.1676 7.40272H19.1676Z" fill="#25F4EE"/>
<path d="M16.3063 5.33206C15.471 4.17708 15.0106 2.69238 15.0109 1.15527H14.001C14.1314 2.00512 14.4031 2.81379 14.7995 3.5319C15.1958 4.25002 15.7085 4.86254 16.3063 5.33206ZM6.96054 14.3699C5.50302 14.379 4.23763 15.5915 3.89148 17.3107C3.5453 19.03 4.20718 20.8147 5.49683 21.6393C4.79805 20.4679 4.69933 18.9195 5.24129 17.6314C5.78331 16.3432 6.8744 15.533 8.06564 15.5341C8.38328 15.5389 8.69872 15.5988 9.00243 15.7119V11.0374C8.69228 10.9809 8.37924 10.9512 8.06564 10.9485H7.8973V14.5032C7.59202 14.4038 7.27645 14.3589 6.96051 14.3699L6.96054 14.3699Z" fill="#FE2C55"/>
<path d="M19.1676 7.40259V10.9573C17.2829 10.9529 15.4471 10.2284 13.9202 8.88667V18.2267C13.9121 22.8873 10.7984 26.6603 6.9603 26.6603C5.53491 26.6633 4.14385 26.1293 2.979 25.1317C4.92297 27.6705 7.94834 28.5062 10.6054 27.2384C13.2625 25.9706 15.0101 22.8575 15.0106 19.3908V10.0775C16.5426 11.4105 18.3807 12.1255 20.2654 12.1215V7.54476C19.8964 7.54334 19.5285 7.4957 19.1676 7.40259H19.1676Z" fill="#FE2C55"/>
<path d="M13.9204 18.2268V8.8868C15.4519 10.2209 17.2903 10.936 19.1751 10.9308V7.37604C18.0616 7.09051 17.0547 6.37313 16.3063 5.33206C15.7085 4.86254 15.1958 4.25002 14.7994 3.53191C14.4031 2.81379 14.1314 2.00512 14.0009 1.15527H11.2345V19.5509C11.1792 21.1921 10.2739 22.6107 8.97896 23.0854C7.68398 23.5602 6.28347 22.9869 5.48946 21.6571C4.19984 20.8324 3.53796 19.0477 3.88411 17.3285C4.23029 15.6093 5.49565 14.3968 6.95317 14.3877C7.27088 14.3912 7.58649 14.451 7.88996 14.5655V11.0107C5.13932 11.0673 2.67603 13.092 1.61078 16.1719C0.545503 19.2518 1.07947 22.8051 2.9719 25.2296C4.14823 26.1943 5.54131 26.694 6.96051 26.6604C10.7986 26.6604 13.9123 22.8874 13.9204 18.2268Z" fill="black"/>
<path d="M32.2605 26.6714H28.2604V10.8828H24.2679L24.2603 6.55487H36.5895L35.4576 10.8828H32.2605V26.6714ZM64.7893 26.6714H60.7969V10.8828H56.7891L56.7814 6.55487H69.3937L68.2617 10.8828H64.7893V26.6714ZM37.3391 12.9539H41.2933V26.6714H37.3697L37.3391 12.9539ZM47.9781 19.9937L46.8079 21.3683V26.6714H42.8613V6.49915H46.8079V15.8701L50.7239 11.2264H55.4353L50.4868 17.0589L56.0319 26.6714H51.6799L47.9781 19.9937ZM89.815 19.9937L88.6831 21.3683V26.6714H84.7288L84.6906 6.49915H88.6831V15.8701L92.5914 11.2264H97.3029L92.3543 17.0589L97.8612 26.6714H93.5092L89.815 19.9937Z" fill="black"/>
<path d="M39.3197 11.384C40.4179 11.384 41.3082 10.3029 41.3082 8.96929C41.3082 7.63567 40.4179 6.55457 39.3197 6.55457C38.2214 6.55457 37.3311 7.63567 37.3311 8.96929C37.3311 10.3029 38.2214 11.384 39.3197 11.384Z" fill="black"/>
<path d="M68.889 18.4611C68.8902 14.1765 71.6047 10.6134 75.1225 10.2789H74.5335C70.9584 10.5322 68.166 14.1265 68.166 18.4751C68.166 22.8237 70.9584 26.418 74.5335 26.6712H75.1225C71.5959 26.3359 68.8782 22.7565 68.889 18.4611Z" fill="#25F4EE"/>
<path d="M76.6596 10.2512H76.063C79.5694 10.6028 82.2677 14.1611 82.2677 18.4334C82.2677 22.7056 79.5694 26.2639 76.063 26.6156H76.6596C80.3937 26.6156 83.4208 22.9398 83.4208 18.4055C83.4208 13.8712 80.3937 10.1954 76.6596 10.1954V10.2512Z" fill="#FE2C55"/>
<path d="M75.5889 22.4549C73.7725 22.4549 72.3 20.6669 72.3 18.4613C72.3 16.2557 73.7725 14.4677 75.5889 14.4677C77.4052 14.4677 78.8777 16.2557 78.8777 18.4613C78.8735 20.6648 77.4035 22.4498 75.5889 22.4549ZM75.5889 10.2512C71.8547 10.2512 68.8276 13.927 68.8276 18.4613C68.8276 22.9956 71.8547 26.6713 75.5889 26.6713C79.323 26.6713 82.3501 22.9956 82.3501 18.4613C82.3501 16.2838 81.6377 14.1956 80.3698 12.6559C79.1018 11.1162 77.3821 10.2512 75.5889 10.2512Z" fill="black"/>
</svg>
