<svg width="217" height="47" viewBox="0 0 217 47" fill="none" xmlns="http://www.w3.org/2000/svg">
<path d="M58.024 35.6129C57.3426 35.6129 56.8201 35.4203 56.4575 35.0355C56.0944 34.6507 55.9128 34.1171 55.9128 33.4358V15.6227H49.4806C48.9084 15.6227 48.4635 15.4633 48.1442 15.1446C47.8254 14.8252 47.666 14.3914 47.666 13.8414C47.666 13.2693 47.8254 12.8355 48.1442 12.5383C48.4635 12.2417 48.9084 12.0929 49.4806 12.0929H66.5679C67.1395 12.0929 67.5849 12.2417 67.9037 12.5383C68.2225 12.8355 68.3819 13.2693 68.3819 13.8414C68.3819 14.3914 68.2225 14.8252 67.9037 15.1446C67.5849 15.4633 67.1395 15.6227 66.5679 15.6227H60.1351V33.4358C60.1351 34.1171 59.9594 34.6507 59.6073 35.0355C59.2558 35.4203 58.728 35.6129 58.024 35.6129ZM69.9326 35.6129C69.2507 35.6129 68.7287 35.4314 68.3655 35.0688C68.003 34.7056 67.8214 34.1836 67.8214 33.5017V21.0326C67.8214 20.3507 67.9971 19.834 68.3492 19.482C68.7007 19.1305 69.1958 18.9542 69.8333 18.9542C70.4714 18.9542 70.966 19.1305 71.318 19.482C71.6695 19.834 71.8458 20.3507 71.8458 21.0326V23.1105H71.5159C71.8236 21.7911 72.4285 20.7904 73.33 20.109C74.232 19.4271 75.4301 19.0201 76.9258 18.8882C77.3876 18.8444 77.756 18.96 78.031 19.235C78.3055 19.5094 78.4649 19.9332 78.5092 20.5048C78.553 21.0543 78.4269 21.4997 78.1297 21.8407C77.8331 22.1816 77.3876 22.3848 76.7939 22.4508L76.0682 22.5168C74.7265 22.6487 73.7147 23.0615 73.0333 23.7539C72.3514 24.4469 72.0105 25.4196 72.0105 26.6731V33.5017C72.0105 34.1836 71.8347 34.7056 71.4827 35.0688C71.1312 35.4314 70.6145 35.6129 69.9326 35.6129ZM85.8983 35.6789C84.733 35.6789 83.6937 35.4535 82.7812 35.0028C81.8681 34.5515 81.1535 33.9414 80.6367 33.1719C80.12 32.4023 79.8614 31.5336 79.8614 30.5656C79.8614 29.3781 80.1696 28.4381 80.785 27.7456C81.401 27.0526 82.4017 26.5523 83.7871 26.2446C85.1726 25.9363 87.031 25.7828 89.3617 25.7828H91.011V28.1578H89.395C88.0317 28.1578 86.9428 28.2238 86.129 28.3558C85.3156 28.4877 84.7382 28.7131 84.3973 29.0319C84.0563 29.3506 83.8858 29.7961 83.8858 30.3677C83.8858 31.0934 84.1392 31.6872 84.6448 32.149C85.1504 32.6108 85.8545 32.842 86.756 32.842C87.4817 32.842 88.1251 32.6715 88.6856 32.3306C89.2466 31.9896 89.6916 31.5225 90.0214 30.9287C90.3513 30.335 90.5165 29.6531 90.5165 28.8835V25.0898C90.5165 23.9904 90.2748 23.1987 89.7908 22.7147C89.3068 22.2312 88.4935 21.989 87.3498 21.989C86.7122 21.989 86.0245 22.066 85.2882 22.2202C84.5514 22.3737 83.7761 22.6376 82.9622 23.0118C82.5447 23.2098 82.1763 23.2647 81.8575 23.1765C81.5387 23.0889 81.2912 22.9073 81.1149 22.6324C80.9392 22.3574 80.851 22.055 80.851 21.7251C80.851 21.3952 80.9392 21.0711 81.1149 20.7524C81.2912 20.433 81.5878 20.1966 82.0058 20.043C83.0176 19.625 83.9903 19.3284 84.9251 19.1521C85.8598 18.9763 86.7122 18.8882 87.4817 18.8882C89.0651 18.8882 90.3682 19.1305 91.3905 19.6139C92.4134 20.0979 93.1776 20.8289 93.6833 21.8079C94.1889 22.7865 94.4417 24.0453 94.4417 25.5848V33.5017C94.4417 34.1836 94.277 34.7056 93.9472 35.0688C93.6173 35.4314 93.1444 35.6129 92.5285 35.6129C91.913 35.6129 91.4349 35.4314 91.0939 35.0688C90.753 34.7056 90.5825 34.1836 90.5825 33.5017V31.9184H90.8464C90.6923 32.6879 90.3898 33.3534 89.9391 33.9139C89.4884 34.475 88.922 34.9088 88.2401 35.2171C87.5588 35.5248 86.7782 35.6789 85.8983 35.6789ZM101.798 35.6129C101.138 35.6129 100.627 35.4314 100.264 35.0688C99.9012 34.7056 99.7196 34.1836 99.7196 33.5017V22.3189H98.2022C97.6744 22.3189 97.268 22.1816 96.982 21.9066C96.6959 21.6317 96.5529 21.2522 96.5529 20.7687C96.5529 20.2626 96.6959 19.8778 96.982 19.6139C97.268 19.35 97.6744 19.2181 98.2022 19.2181H100.907L99.7196 20.3069V19.1853C99.7196 16.9201 100.292 15.2211 101.435 14.089C102.579 12.9563 104.228 12.2908 106.383 12.0929L107.505 11.9942C107.945 11.9498 108.296 12.0216 108.56 12.2084C108.824 12.3953 109 12.6375 109.088 12.9342C109.176 13.2313 109.187 13.5332 109.121 13.8414C109.055 14.1491 108.917 14.4188 108.709 14.6495C108.5 14.8807 108.23 15.0068 107.9 15.029L107.439 15.0617C106.185 15.1498 105.273 15.4686 104.701 16.0186C104.129 16.5685 103.843 17.404 103.843 18.5256V19.7459L103.316 19.2181H106.647C107.175 19.2181 107.582 19.35 107.868 19.6139C108.154 19.8778 108.296 20.2626 108.296 20.7687C108.296 21.2522 108.154 21.6317 107.868 21.9066C107.582 22.1816 107.175 22.3189 106.647 22.3189H103.843V33.5017C103.843 34.9088 103.161 35.6129 101.798 35.6129ZM113.046 35.6129C112.387 35.6129 111.876 35.4314 111.513 35.0688C111.15 34.7056 110.969 34.1836 110.969 33.5017V22.3189H109.451C108.923 22.3189 108.516 22.1816 108.23 21.9066C107.945 21.6317 107.802 21.2522 107.802 20.7687C107.802 20.2626 107.945 19.8778 108.23 19.6139C108.516 19.35 108.923 19.2181 109.451 19.2181H112.156L110.969 20.3069V19.1853C110.969 16.9644 111.529 15.2818 112.651 14.1381C113.772 12.9949 115.4 12.3129 117.533 12.0929L118.522 11.9942C119.028 11.9498 119.43 12.0163 119.727 12.1921C120.023 12.3678 120.221 12.6043 120.32 12.9014C120.419 13.1981 120.436 13.5058 120.37 13.8251C120.304 14.1439 120.172 14.4188 119.974 14.6495C119.776 14.8807 119.523 15.0068 119.215 15.029L118.424 15.0949C117.258 15.1831 116.411 15.5019 115.883 16.0513C115.356 16.6013 115.092 17.4257 115.092 18.5256V19.7459L114.564 19.2181H123.702C124.361 19.2181 124.867 19.4107 125.219 19.7955C125.571 20.1802 125.747 20.7249 125.747 21.4285V33.3365C125.747 34.0406 125.576 34.59 125.235 34.9859C124.894 35.3817 124.383 35.5797 123.702 35.5797C123.042 35.5797 122.53 35.3817 122.168 34.9859C121.805 34.59 121.623 34.0406 121.623 33.3365V22.3189H115.092V33.5017C115.092 34.9088 114.41 35.6129 113.046 35.6129ZM123.767 15.9194C123.02 15.9194 122.442 15.7272 122.036 15.3425C121.629 14.9572 121.425 14.4241 121.425 13.7422C121.425 13.0387 121.629 12.4998 122.036 12.1261C122.442 11.7519 123.02 11.5651 123.767 11.5651C124.537 11.5651 125.126 11.7519 125.532 12.1261C125.939 12.4998 126.143 13.0387 126.143 13.7422C126.143 14.4241 125.939 14.9572 125.532 15.3425C125.126 15.7272 124.537 15.9194 123.767 15.9194ZM137.49 35.6789C135.797 35.6789 134.323 35.3327 133.07 34.6397C131.816 33.9472 130.849 32.9629 130.167 31.6872C129.485 30.412 129.144 28.9163 129.144 27.2009C129.144 25.9036 129.337 24.7435 129.722 23.7212C130.106 22.6983 130.662 21.8296 131.387 21.115C132.113 20.4003 132.993 19.8504 134.026 19.4656C135.06 19.0808 136.214 18.8882 137.49 18.8882C138.216 18.8882 139.002 18.9874 139.849 19.1853C140.695 19.3833 141.492 19.7131 142.24 20.175C142.592 20.3945 142.823 20.6584 142.933 20.9666C143.043 21.2744 143.065 21.5879 142.999 21.9066C142.933 22.2254 142.795 22.5004 142.586 22.7316C142.377 22.9622 142.119 23.1053 141.811 23.1602C141.503 23.215 141.163 23.1438 140.789 22.9459C140.305 22.6598 139.81 22.4455 139.304 22.3025C138.799 22.1595 138.315 22.0882 137.853 22.0882C137.127 22.0882 136.489 22.2038 135.939 22.4344C135.39 22.6656 134.922 22.9955 134.538 23.4241C134.153 23.8531 133.862 24.3862 133.664 25.0238C133.466 25.6619 133.366 26.3982 133.366 27.2342C133.366 28.8614 133.757 30.1423 134.538 31.0771C135.318 32.0118 136.423 32.4789 137.853 32.4789C138.315 32.4789 138.793 32.4129 139.288 32.281C139.783 32.149 140.283 31.94 140.789 31.6545C141.163 31.4565 141.498 31.3906 141.795 31.4565C142.092 31.5225 142.339 31.6708 142.537 31.902C142.735 32.1326 142.856 32.4076 142.9 32.7264C142.944 33.0452 142.905 33.3587 142.784 33.6664C142.664 33.9746 142.438 34.2275 142.108 34.4254C141.383 34.865 140.613 35.1838 139.799 35.3817C138.985 35.5797 138.216 35.6789 137.49 35.6789Z" fill="white"/>
<path d="M148.244 35.3489C147.518 35.3489 146.963 35.1563 146.578 34.7715C146.194 34.3868 146.001 33.8315 146.001 33.1058V14.3359C146.001 13.6102 146.194 13.0549 146.578 12.6702C146.963 12.2854 147.518 12.0928 148.244 12.0928H156.161C157.788 12.0928 159.174 12.335 160.317 12.8185C161.461 13.3025 162.335 13.9955 162.94 14.8969C163.545 15.7984 163.847 16.8762 163.847 18.1297C163.847 19.5373 163.44 20.7248 162.626 21.6923C161.813 22.6597 160.702 23.3084 159.295 23.6383V23.1437C160.922 23.3854 162.187 24.0014 163.088 24.991C163.99 25.9806 164.44 27.2668 164.44 28.8502C164.44 30.9176 163.743 32.5173 162.346 33.65C160.95 34.7826 159.009 35.3489 156.524 35.3489H148.244ZM150.058 32.1489H155.996C157.492 32.1489 158.591 31.8576 159.295 31.2749C159.999 30.6922 160.35 29.8182 160.35 28.6523C160.35 27.4648 159.999 26.5855 159.295 26.0133C158.591 25.4417 157.492 25.1557 155.996 25.1557H150.058V32.1489ZM150.058 21.9562H155.435C156.887 21.9562 157.97 21.6759 158.684 21.1149C159.399 20.5544 159.756 19.7241 159.756 18.6242C159.756 17.5248 159.399 16.6946 158.684 16.1341C157.97 15.573 156.887 15.2928 155.435 15.2928H150.058V21.9562ZM175.657 35.6788C173.985 35.6788 172.534 35.3379 171.302 34.6559C170.07 33.9746 169.114 33.0013 168.432 31.7367C167.75 30.4721 167.409 28.9822 167.409 27.2668C167.409 25.9695 167.602 24.8094 167.987 23.7871C168.371 22.7642 168.927 21.8844 169.653 21.1481C170.378 20.4113 171.247 19.8503 172.259 19.4655C173.27 19.0808 174.403 18.8881 175.657 18.8881C177.328 18.8881 178.779 19.2291 180.011 19.911C181.242 20.5924 182.199 21.5603 182.881 22.8138C183.562 24.0674 183.903 25.5515 183.903 27.2668C183.903 28.5647 183.711 29.73 183.326 30.7635C182.941 31.7974 182.386 32.6825 181.66 33.4193C180.935 34.1556 180.066 34.7166 179.054 35.1014C178.042 35.4862 176.91 35.6788 175.657 35.6788ZM175.657 32.5448C176.47 32.5448 177.185 32.3468 177.801 31.951C178.416 31.5552 178.895 30.9672 179.236 30.1866C179.577 29.4055 179.747 28.4327 179.747 27.2668C179.747 25.5077 179.373 24.1935 178.625 23.3253C177.878 22.4565 176.888 22.0222 175.657 22.0222C174.843 22.0222 174.128 22.2143 173.512 22.5996C172.896 22.9843 172.418 23.567 172.077 24.3476C171.736 25.1282 171.566 26.1015 171.566 27.2668C171.566 29.0043 171.94 30.3185 172.688 31.2089C173.435 32.0998 174.425 32.5448 175.657 32.5448ZM193.206 35.6788C192.26 35.6788 191.259 35.5796 190.204 35.3817C189.148 35.1837 188.202 34.8428 187.367 34.3593C187.015 34.1392 186.768 33.8811 186.625 33.584C186.482 33.2874 186.427 32.9902 186.459 32.6936C186.493 32.3965 186.603 32.1378 186.789 31.9183C186.976 31.6982 187.218 31.5552 187.515 31.4892C187.812 31.4232 188.136 31.4781 188.488 31.6544C189.368 32.0719 190.193 32.3637 190.962 32.5284C191.732 32.6936 192.491 32.7759 193.238 32.7759C194.294 32.7759 195.08 32.5944 195.597 32.2318C196.114 31.8687 196.373 31.3905 196.373 30.7967C196.373 30.2906 196.202 29.9005 195.861 29.6255C195.52 29.3506 195.009 29.1474 194.327 29.0154L191.029 28.3884C189.665 28.1245 188.626 27.6242 187.911 26.8879C187.196 26.1511 186.839 25.2 186.839 24.0341C186.839 22.9785 187.13 22.066 187.713 21.2964C188.296 20.5269 189.104 19.9331 190.138 19.5151C191.171 19.0971 192.359 18.8881 193.7 18.8881C194.668 18.8881 195.575 18.9926 196.422 19.2016C197.268 19.4106 198.088 19.7352 198.88 20.1749C199.209 20.3506 199.435 20.5818 199.556 20.8673C199.677 21.1534 199.704 21.4447 199.638 21.7419C199.572 22.0385 199.44 22.3024 199.242 22.5336C199.044 22.7642 198.797 22.9073 198.5 22.9622C198.203 23.017 197.868 22.9569 197.494 22.7806C196.812 22.4291 196.158 22.1757 195.531 22.0222C194.904 21.868 194.305 21.791 193.733 21.791C192.656 21.791 191.858 21.9778 191.342 22.352C190.825 22.7257 190.566 23.2208 190.566 23.8362C190.566 24.298 190.72 24.6833 191.029 24.991C191.336 25.2987 191.809 25.5077 192.447 25.6175L195.745 26.2445C197.175 26.5084 198.258 26.9919 198.995 27.6959C199.731 28.3995 200.1 29.3453 200.1 30.5328C200.1 32.1378 199.473 33.3972 198.22 34.3097C196.966 35.2223 195.295 35.6788 193.206 35.6788ZM209.303 35.6788C208.358 35.6788 207.357 35.5796 206.301 35.3817C205.246 35.1837 204.3 34.8428 203.464 34.3593C203.112 34.1392 202.865 33.8811 202.722 33.584C202.579 33.2874 202.524 32.9902 202.557 32.6936C202.59 32.3965 202.7 32.1378 202.887 31.9183C203.074 31.6982 203.316 31.5552 203.613 31.4892C203.91 31.4232 204.234 31.4781 204.586 31.6544C205.466 32.0719 206.29 32.3637 207.06 32.5284C207.83 32.6936 208.588 32.7759 209.336 32.7759C210.392 32.7759 211.178 32.5944 211.695 32.2318C212.212 31.8687 212.47 31.3905 212.47 30.7967C212.47 30.2906 212.3 29.9005 211.959 29.6255C211.618 29.3506 211.106 29.1474 210.424 29.0154L207.126 28.3884C205.762 28.1245 204.723 27.6242 204.009 26.8879C203.294 26.1511 202.937 25.2 202.937 24.0341C202.937 22.9785 203.228 22.066 203.811 21.2964C204.393 20.5269 205.202 19.9331 206.235 19.5151C207.269 19.0971 208.456 18.8881 209.798 18.8881C210.765 18.8881 211.673 18.9926 212.519 19.2016C213.366 19.4106 214.185 19.7352 214.977 20.1749C215.307 20.3506 215.532 20.5818 215.653 20.8673C215.774 21.1534 215.802 21.4447 215.736 21.7419C215.67 22.0385 215.538 22.3024 215.34 22.5336C215.142 22.7642 214.894 22.9073 214.598 22.9622C214.301 23.017 213.965 22.9569 213.591 22.7806C212.91 22.4291 212.255 22.1757 211.629 22.0222C211.002 21.868 210.403 21.791 209.831 21.791C208.754 21.791 207.956 21.9778 207.439 22.352C206.923 22.7257 206.664 23.2208 206.664 23.8362C206.664 24.298 206.818 24.6833 207.126 24.991C207.434 25.2987 207.907 25.5077 208.544 25.6175L211.843 26.2445C213.272 26.5084 214.355 26.9919 215.092 27.6959C215.829 28.3995 216.197 29.3453 216.197 30.5328C216.197 32.1378 215.57 33.3972 214.317 34.3097C213.064 35.2223 211.392 35.6788 209.303 35.6788Z" fill="white"/>
<path fill-rule="evenodd" clip-rule="evenodd" d="M1.55435 23.5V12.647L10.9528 7.22074L20.3517 1.7945L29.7507 7.22074L39.1496 12.647V23.5V34.353L29.7507 39.7793L20.3517 45.2055L10.9528 39.7793L1.55435 34.353V23.5ZM20.3517 3.89406L28.8413 8.79568L37.3308 13.6973V23.5V33.3027L28.8413 38.2043L20.3517 43.1054L11.8622 38.2043L3.3726 33.3027V23.5V13.6973L11.8622 8.79568L20.3517 3.89406ZM20.2572 9.47389C22.0063 9.47389 23.424 10.8915 23.424 12.6407C23.424 14.3898 22.0063 15.8074 20.2572 15.8074C18.5081 15.8074 17.0905 14.3898 17.0905 12.6407C17.0905 10.8915 18.5081 9.47389 20.2572 9.47389ZM20.2572 16.3115C20.5839 16.3115 20.851 16.5785 20.851 16.9052V33.4515C20.851 33.7782 20.5839 34.0453 20.2572 34.0453C19.9305 34.0453 19.6635 33.7782 19.6635 33.4515V16.9052C19.6635 16.5785 19.9305 16.3115 20.2572 16.3115ZM20.2572 34.5705C21.0732 34.5705 21.7351 35.2318 21.7351 36.0483C21.7351 36.8643 21.0732 37.5261 20.2572 37.5261C19.4413 37.5261 18.7794 36.8643 18.7794 36.0483C18.7794 35.2318 19.4413 34.5705 20.2572 34.5705ZM16.701 13.8424C16.8118 14.0061 16.7685 14.2304 16.6049 14.3407L8.31644 19.9464C8.15283 20.0567 7.92851 20.0134 7.81768 19.8498C7.70737 19.6862 7.75065 19.4619 7.91426 19.3515L16.2022 13.7459C16.3658 13.6355 16.5907 13.6788 16.701 13.8424ZM6.49714 19.6561C7.07401 19.6561 7.54164 20.1237 7.54164 20.7006C7.54164 21.2775 7.07401 21.7451 6.49714 21.7451C5.92026 21.7451 5.45263 21.2775 5.45263 20.7006C5.45263 20.1237 5.92026 19.6561 6.49714 19.6561ZM24.0025 13.8424C23.8916 14.0061 23.9354 14.2304 24.0985 14.3407L32.387 19.9464C32.5506 20.0567 32.7749 20.0134 32.8857 19.8498C32.9966 19.6862 32.9528 19.4619 32.7897 19.3515L24.5012 13.7459C24.3376 13.6355 24.1133 13.6788 24.0025 13.8424ZM34.2063 19.6561C33.6294 19.6561 33.1618 20.1237 33.1618 20.7006C33.1618 21.2775 33.6294 21.7451 34.2063 21.7451C34.7832 21.7451 35.2508 21.2775 35.2508 20.7006C35.2508 20.1237 34.7832 19.6561 34.2063 19.6561ZM18.3223 15.6887C18.4184 15.7567 18.4411 15.8913 18.373 15.9874L14.9191 20.8568C14.8511 20.9529 14.7165 20.9756 14.6204 20.9075C14.5243 20.8394 14.5017 20.7048 14.5697 20.6087L18.0236 15.7393C18.0917 15.6433 18.2263 15.6206 18.3223 15.6887ZM14.1491 21.0041C14.4336 21.0041 14.6647 21.2352 14.6647 21.5197C14.6647 21.8047 14.4336 22.0354 14.1491 22.0354C13.8641 22.0354 13.6334 21.8047 13.6334 21.5197C13.6334 21.2352 13.8641 21.0041 14.1491 21.0041ZM22.4581 15.4775H22.4576C22.3616 15.5456 22.3389 15.6802 22.4069 15.7763L25.8613 20.6457C25.9294 20.7418 26.0635 20.7644 26.1596 20.6964H26.1601C26.2561 20.6283 26.2788 20.4937 26.2107 20.3976L22.7563 15.5282C22.6883 15.4322 22.5542 15.4095 22.4581 15.4775ZM26.6314 20.7929C26.3464 20.7929 26.1157 21.0241 26.1157 21.3086C26.1157 21.5936 26.3464 21.8243 26.6314 21.8243C26.9159 21.8243 27.1465 21.5936 27.1465 21.3086C27.1465 21.0241 26.9159 20.7929 26.6314 20.7929ZM40.7034 23.5V11.7497L30.5276 5.87487L20.3517 0L10.1759 5.87487L0 11.7497V23.5V35.2503L10.1759 41.1251L20.3517 47L30.5276 41.1251L40.7034 35.2503V23.5Z" fill="white"/>
</svg>
