<svg width="108" height="30" viewBox="0 0 108 30" fill="none" xmlns="http://www.w3.org/2000/svg">
<path d="M33.7041 4.57797C33.3072 2.78809 32.145 1.37683 30.671 0.894942C27.9781 0 17.2064 0 17.2064 0C17.2064 0 6.43467 0 3.74175 0.860521C2.29607 1.34241 1.10552 2.78809 0.708664 4.57797C0 7.84795 0 14.6289 0 14.6289C0 14.6289 0 21.4442 0.708664 24.6797C1.10552 26.4696 2.26773 27.8809 3.74175 28.3628C6.46302 29.2577 17.2064 29.2577 17.2064 29.2577C17.2064 29.2577 27.9781 29.2577 30.671 28.3972C32.145 27.9153 33.3072 26.5041 33.7041 24.7142C34.4127 21.4442 34.4127 14.6633 34.4127 14.6633C34.4127 14.6633 34.4411 7.84795 33.7041 4.57797Z" fill="#FF0000"/>
<path d="M13.7764 8.36426V20.8934L22.7339 14.6289L13.7764 8.36426Z" fill="white"/>
<path d="M49.9749 26.6415C49.2946 26.0908 48.8127 25.2302 48.5292 24.0255C48.2457 22.8552 48.104 21.2718 48.104 19.3443V16.6939C48.104 14.7319 48.2741 13.1485 48.5859 11.9438C48.9261 10.7391 49.4363 9.87854 50.1166 9.32781C50.8253 8.77708 51.7324 8.50171 52.8662 8.50171C53.9717 8.50171 54.8788 8.77708 55.5592 9.32781C56.2395 9.87854 56.7214 10.7735 57.0332 11.9438C57.345 13.1141 57.5151 14.6975 57.5151 16.6939V19.3443C57.5151 21.3063 57.3733 22.8552 57.0615 24.0599C56.7497 25.2302 56.2678 26.1252 55.5875 26.6759C54.9072 27.2267 53.9717 27.502 52.8095 27.502C51.619 27.4676 50.6552 27.1922 49.9749 26.6415ZM53.8017 23.7501C54.0001 23.165 54.0851 22.1668 54.0851 20.8244V15.1105C54.0851 13.8025 54.0001 12.8387 53.8017 12.2192C53.6032 11.5996 53.2914 11.3242 52.8095 11.3242C52.356 11.3242 52.0158 11.634 51.8458 12.2192C51.6473 12.8387 51.5623 13.8025 51.5623 15.1105V20.8244C51.5623 22.1668 51.6473 23.165 51.8458 23.7501C52.0158 24.3353 52.356 24.6451 52.8379 24.6451C53.2914 24.6451 53.6032 24.3697 53.8017 23.7501Z" fill="#282828"/>
<path d="M102.302 19.3788V20.3082C102.302 21.4785 102.331 22.3734 102.387 22.9586C102.444 23.5437 102.557 23.9912 102.756 24.2322C102.926 24.5075 103.209 24.6452 103.606 24.6452C104.117 24.6452 104.457 24.4043 104.655 23.9224C104.854 23.4405 104.939 22.6488 104.967 21.5129L107.887 21.7194C107.915 21.8915 107.915 22.0981 107.915 22.3734C107.915 24.0601 107.546 25.3336 106.781 26.1597C106.016 26.9858 104.939 27.3989 103.55 27.3989C101.877 27.3989 100.715 26.7449 100.035 25.4713C99.3543 24.1977 99.0142 22.2357 99.0142 19.5509V16.3498C99.0142 13.5961 99.3543 11.5997 100.063 10.3261C100.772 9.05256 101.962 8.43298 103.635 8.43298C104.797 8.43298 105.704 8.70835 106.328 9.22466C106.951 9.74098 107.376 10.5671 107.632 11.6341C107.887 12.7356 108 14.2501 108 16.1777V19.31H102.302V19.3788ZM102.728 11.6685C102.557 11.9439 102.444 12.357 102.387 12.9421C102.331 13.5273 102.302 14.4222 102.302 15.6269V16.9349H104.797V15.6269C104.797 14.4566 104.769 13.5617 104.712 12.9421C104.655 12.3225 104.513 11.9095 104.343 11.6685C104.173 11.4276 103.89 11.2899 103.55 11.2899C103.153 11.2555 102.898 11.3932 102.728 11.6685Z" fill="#282828"/>
<path d="M41.6974 19.0345L37.8423 2.06506H41.2155L42.5762 9.74091C42.9163 11.6341 43.1714 13.2518 43.3415 14.5943H43.4266C43.5399 13.6305 43.7951 12.0471 44.1919 9.77533L45.6092 2.06506H48.9825L45.0707 19.0345V27.1579H41.7258V19.0345H41.6974Z" fill="#282828"/>
<path d="M68.4851 8.84607V27.1924H65.8205L65.537 24.955H65.452C64.7433 26.6416 63.6378 27.5022 62.1922 27.5022C61.2 27.5022 60.463 27.0891 59.9811 26.2974C59.4992 25.5058 59.2725 24.2666 59.2725 22.5456V8.84607H62.674V22.3046C62.674 23.1307 62.7591 23.7159 62.9008 24.0601C63.0426 24.4043 63.2977 24.5764 63.6378 24.5764C63.9213 24.5764 64.2048 24.4731 64.4882 24.2322C64.7717 24.0257 64.9701 23.7503 65.0835 23.4061V8.84607H68.4851Z" fill="#282828"/>
<path d="M85.9182 8.84607V27.1924H83.2536L82.9702 24.955H82.8851C82.1765 26.6416 81.0709 27.5022 79.6253 27.5022C78.6331 27.5022 77.8961 27.0891 77.4142 26.2974C76.9323 25.5058 76.7056 24.2666 76.7056 22.5456V8.84607H80.1072V22.3046C80.1072 23.1307 80.1922 23.7159 80.3339 24.0601C80.4757 24.4043 80.7308 24.5764 81.0709 24.5764C81.3544 24.5764 81.6379 24.4731 81.9213 24.2322C82.2048 24.0257 82.4032 23.7503 82.5166 23.4061V8.84607H85.9182Z" fill="#282828"/>
<path d="M77.7261 5.40389H74.3529V27.1579H71.0363V5.40389H67.6631V2.06506H77.7261V5.40389Z" fill="#282828"/>
<path d="M97.1716 11.7719C96.9732 10.6016 96.633 9.7755 96.1795 9.25918C95.7259 8.74287 95.074 8.46751 94.2803 8.46751C93.6566 8.46751 93.0614 8.67403 92.5228 9.1215C91.9842 9.53455 91.559 10.1197 91.2755 10.8081H91.2472V1.13586H87.959V27.158H90.7653L91.1055 25.437H91.1905C91.4456 26.0566 91.8425 26.5385 92.3811 26.9171C92.9196 27.2613 93.4866 27.4678 94.1385 27.4678C95.3008 27.4678 96.1228 26.8138 96.6614 25.5402C97.2 24.2667 97.4834 22.2358 97.4834 19.5166V16.6252C97.4551 14.5256 97.37 12.9078 97.1716 11.7719ZM94.0535 19.2412C94.0535 20.5836 93.9968 21.6163 93.9118 22.3735C93.8267 23.1308 93.6567 23.6815 93.4582 23.9913C93.2315 24.3011 92.948 24.4732 92.6078 24.4732C92.3244 24.4732 92.0692 24.4044 91.8425 24.2323C91.6157 24.0602 91.4173 23.8192 91.2755 23.5094V13.1143C91.3889 12.6324 91.5874 12.2194 91.8708 11.8752C92.1543 11.5654 92.4661 11.3933 92.7779 11.3933C93.1181 11.3933 93.4015 11.5654 93.5716 11.8752C93.77 12.2194 93.8834 12.7701 93.9685 13.5274C94.0535 14.319 94.0818 15.4205 94.0818 16.8318V19.2412H94.0535Z" fill="#282828"/>
</svg>
